<?xml version="1.0" encoding="UTF-8"?>
<svg width="14px" height="15px" viewBox="0 0 14 15" version="1.1" xmlns="http://www.w3.org/2000/svg" xmlns:xlink="http://www.w3.org/1999/xlink">
    <!-- Generator: Sketch 58 (84663) - https://sketch.com -->
    <title>building-solid</title>
    <desc>Created with Sketch.</desc>
    <g id="Propuesta-3" stroke="none" stroke-width="1" fill="none" fill-rule="evenodd">
        <g id="building-solid" fill="#657182" fill-rule="nonzero">
            <path d="M13.0382401,14.0625 L12.4523026,14.0625 L12.4523026,0.703125 C12.4523026,0.314794922 12.1375077,0 11.7491776,0 L1.90542763,0 C1.51709755,0 1.20230263,0.314794922 1.20230263,0.703125 L1.20230263,14.0625 L0.616365132,14.0625 C0.422214741,14.0625 0.264802632,14.2199121 0.264802632,14.4140625 L0.264802632,15 L13.3898026,15 L13.3898026,14.4140625 C13.3898026,14.2199121 13.2323905,14.0625 13.0382401,14.0625 Z M4.01480263,2.2265625 C4.01480263,2.03241211 4.17221474,1.875 4.36636513,1.875 L5.53824013,1.875 C5.73239052,1.875 5.88980263,2.03241211 5.88980263,2.2265625 L5.88980263,3.3984375 C5.88980263,3.59258789 5.73239052,3.75 5.53824013,3.75 L4.36636513,3.75 C4.17221474,3.75 4.01480263,3.59258789 4.01480263,3.3984375 L4.01480263,2.2265625 Z M4.01480263,5.0390625 C4.01480263,4.84491211 4.17221474,4.6875 4.36636513,4.6875 L5.53824013,4.6875 C5.73239052,4.6875 5.88980263,4.84491211 5.88980263,5.0390625 L5.88980263,6.2109375 C5.88980263,6.40508789 5.73239052,6.5625 5.53824013,6.5625 L4.36636513,6.5625 C4.17221474,6.5625 4.01480263,6.40508789 4.01480263,6.2109375 L4.01480263,5.0390625 Z M5.53824013,9.375 L4.36636513,9.375 C4.17221474,9.375 4.01480263,9.21758789 4.01480263,9.0234375 L4.01480263,7.8515625 C4.01480263,7.65741211 4.17221474,7.5 4.36636513,7.5 L5.53824013,7.5 C5.73239052,7.5 5.88980263,7.65741211 5.88980263,7.8515625 L5.88980263,9.0234375 C5.88980263,9.21758789 5.73239052,9.375 5.53824013,9.375 Z M7.76480263,14.0625 L5.88980263,14.0625 L5.88980263,11.6015625 C5.88980263,11.4074121 6.04721474,11.25 6.24136513,11.25 L7.41324013,11.25 C7.60739052,11.25 7.76480263,11.4074121 7.76480263,11.6015625 L7.76480263,14.0625 Z M9.63980263,9.0234375 C9.63980263,9.21758789 9.48239052,9.375 9.28824013,9.375 L8.11636513,9.375 C7.92221474,9.375 7.76480263,9.21758789 7.76480263,9.0234375 L7.76480263,7.8515625 C7.76480263,7.65741211 7.92221474,7.5 8.11636513,7.5 L9.28824013,7.5 C9.48239052,7.5 9.63980263,7.65741211 9.63980263,7.8515625 L9.63980263,9.0234375 Z M9.63980263,6.2109375 C9.63980263,6.40508789 9.48239052,6.5625 9.28824013,6.5625 L8.11636513,6.5625 C7.92221474,6.5625 7.76480263,6.40508789 7.76480263,6.2109375 L7.76480263,5.0390625 C7.76480263,4.84491211 7.92221474,4.6875 8.11636513,4.6875 L9.28824013,4.6875 C9.48239052,4.6875 9.63980263,4.84491211 9.63980263,5.0390625 L9.63980263,6.2109375 Z M9.63980263,3.3984375 C9.63980263,3.59258789 9.48239052,3.75 9.28824013,3.75 L8.11636513,3.75 C7.92221474,3.75 7.76480263,3.59258789 7.76480263,3.3984375 L7.76480263,2.2265625 C7.76480263,2.03241211 7.92221474,1.875 8.11636513,1.875 L9.28824013,1.875 C9.48239052,1.875 9.63980263,2.03241211 9.63980263,2.2265625 L9.63980263,3.3984375 Z" id="Shape"></path>
        </g>
    </g>
</svg>