<?xml version="1.0" encoding="UTF-8"?>
<svg width="15px" height="16px" viewBox="0 0 15 16" version="1.1" xmlns="http://www.w3.org/2000/svg" xmlns:xlink="http://www.w3.org/1999/xlink">
    <!-- Generator: Sketch 58 (84663) - https://sketch.com -->
    <title>calendar</title>
    <desc>Created with Sketch.</desc>
    <g id="Propuesta-3" stroke="none" stroke-width="1" fill="none" fill-rule="evenodd">
        <g id="2-Resultados" transform="translate(-196.000000, -297.000000)" fill="#657182" fill-rule="nonzero">
            <g id="Aside-búsqueda" transform="translate(62.000000, 148.000000)">
                <g id="calendar" transform="translate(134.000000, 149.000000)">
                    <path d="M11.2,8.8 L7.2,8.8 L7.2,12.8 L11.2,12.8 L11.2,8.8 Z M10.4,0 L10.4,1.6 L4,1.6 L4,0 L2.4,0 L2.4,1.6 L1.6,1.6 C0.712,1.6 0.00799999,2.32 0.00799999,3.2 L0,14.4 C0,15.28 0.712,16 1.6,16 L12.8,16 C13.68,16 14.4,15.28 14.4,14.4 L14.4,3.2 C14.4,2.32 13.68,1.6 12.8,1.6 L12,1.6 L12,0 L10.4,0 Z M12.8,14.4 L1.6,14.4 L1.6,5.6 L12.8,5.6 L12.8,14.4 Z" id="Shape"></path>
                </g>
            </g>
        </g>
    </g>
</svg>