<?xml version="1.0" encoding="UTF-8"?>
<svg width="17px" height="17px" viewBox="0 0 17 17" version="1.1" xmlns="http://www.w3.org/2000/svg" xmlns:xlink="http://www.w3.org/1999/xlink">
    <!-- Generator: Sketch 58 (84663) - https://sketch.com -->
    <title>food </title>
    <desc>Created with Sketch.</desc>
    <g id="Propuesta-3" stroke="none" stroke-width="1" fill="none" fill-rule="evenodd">
        <g id="2-Resultados" transform="translate(-544.000000, -329.000000)">
            <g id="resultado" transform="translate(333.000000, 214.000000)">
                <g id="food-" transform="translate(211.000000, 115.000000)">
                    <rect id="Rectangle" x="0" y="0" width="17" height="17"></rect>
                    <g id="covered-food-tray-on-a-hand-of-hotel-room-service" stroke-width="1" fill-rule="evenodd" transform="translate(0.000000, 0.850000)" fill="#3D4355">
                        <path d="M5.33653552,8.49661909 C5.34836111,8.29994659 5.36018671,8.10298429 5.38544617,7.90404175 C5.43213362,7.43235618 5.53246195,6.95873866 5.63496619,6.49801691 C5.69735802,6.26821147 5.76495312,6.04120736 5.83585937,5.81927461 C5.92653802,5.60265473 6.01527728,5.38719401 6.10378002,5.17675637 C6.30410557,4.76597552 6.52808231,4.38214537 6.79543532,4.0608621 C6.85891511,3.97807805 6.92182726,3.89785383 6.98341495,3.81733982 C7.05375358,3.74551958 7.12413951,3.67592109 7.19197112,3.60632259 C7.3351554,3.47417722 7.45932413,3.33106803 7.60227191,3.22611485 C7.8871741,3.01065414 8.13924845,2.80581915 8.39586382,2.67898664 C8.64320794,2.53809919 8.85531178,2.41580676 9.04655527,2.34678785 C9.42137928,2.19276314 9.63409806,2.11534025 9.63409806,2.11534025 C9.63409806,2.11534025 9.45269345,2.26236164 9.13562564,2.50086085 C8.97181752,2.61001602 8.79817051,2.78229766 8.59150644,2.95878128 C8.37604413,3.12710242 8.18096914,3.36840296 7.94904561,3.59965736 C7.83306019,3.7177961 7.74299647,3.86621815 7.63330226,4.00285531 C7.57999249,4.0724538 7.52531094,4.14258359 7.46892651,4.21387254 C7.42332703,4.2924546 7.37607196,4.37127816 7.32824926,4.45179217 C7.12352458,4.76158034 6.97050141,5.12522161 6.8110451,5.49417574 C6.74562592,5.68722583 6.6794499,5.88307726 6.61180751,6.08086063 C6.56564039,6.28651669 6.51455383,6.4943945 6.45878433,6.70149953 C6.37496452,7.1271081 6.2928003,7.56121724 6.25732352,8.00759427 C6.23263168,8.16949167 6.22080609,8.33278974 6.20595314,8.49719867 C9.67965024,8.49777826 12.3682225,8.5 16.1302276,8.5 C16.1428573,8.33163057 16.15,8.16103939 16.15,7.98962713 C16.15,4.75452872 13.8411238,2.09008001 10.8700618,1.73711276 C11.0618729,1.55391561 11.1833454,1.29406835 11.1833454,1.00504864 C11.1844333,0.449516444 10.7436698,0 10.2006859,0 C9.65713431,0 9.21585047,0.449516444 9.21585047,1.00504864 C9.21585047,1.29464793 9.33675534,1.55386731 9.52908679,1.73711276 C6.55826122,2.09008001 4.25,4.75452872 4.25,7.98962713 C4.25,8.1605081 4.2560074,8.32882924 4.26840062,8.49666739 C4.63527783,8.49661909 4.989478,8.49661909 5.33653552,8.49661909 Z" id="Path" fill-rule="nonzero"></path>
                        <rect id="Rectangle" fill-rule="nonzero" x="4.25" y="8.5" width="12.75" height="1"></rect>
                        <path d="M11.8788489,11.4737825 C11.1060934,11.8098701 8.4116486,12.6798624 8.4116486,12.6798624 L5.22660761,12.5012229 C5.22660761,12.5012229 7.04844963,12.0475984 7.7546914,11.9056205 C8.46216017,11.7641461 8.15443835,11.05 7.76328041,11.05 C7.37217359,11.05 3.96346041,11.1760042 3.96346041,11.1760042 L1.7,11.9056205 L2.29903249,15.3 C2.29903249,15.3 2.76503754,14.5858081 3.22986672,14.5858081 C3.69643414,14.5858081 7.737769,14.682062 8.28634104,14.5858081 C8.83521984,14.4884558 12.1782884,12.4410814 12.5786489,12.2023003 C12.97722,11.9646178 12.6546207,11.1371915 11.8788489,11.4737825 Z" id="Path" fill-rule="nonzero"></path>
                        <polygon id="Path" fill-rule="nonzero" points="0 11.4842821 0 16.15 2.55 15.5336184 1.91206767 11.05"></polygon>
                    </g>
                </g>
            </g>
        </g>
    </g>
</svg>