<?xml version="1.0" encoding="UTF-8"?>
<svg width="12px" height="16px" viewBox="0 0 12 16" version="1.1" xmlns="http://www.w3.org/2000/svg" xmlns:xlink="http://www.w3.org/1999/xlink">
    <!-- Generator: Sketch 58 (84663) - https://sketch.com -->
    <title>destino</title>
    <desc>Created with Sketch.</desc>
    <g id="Propuesta-3" stroke="none" stroke-width="1" fill="none" fill-rule="evenodd">
        <g id="2-Resultados" transform="translate(-79.000000, -227.000000)" fill="#657182" fill-rule="nonzero">
            <g id="Aside-búsqueda" transform="translate(62.000000, 148.000000)">
                <g id="destino" transform="translate(17.000000, 79.000000)">
                    <path d="M6,0.5 C3.0975,0.5 0.75,2.8475 0.75,5.75 C0.75,9.6875 6,15.5 6,15.5 C6,15.5 11.25,9.6875 11.25,5.75 C11.25,2.8475 8.9025,0.5 6,0.5 Z M6,7.625 C4.965,7.625 4.125,6.785 4.125,5.75 C4.125,4.715 4.965,3.875 6,3.875 C7.035,3.875 7.875,4.715 7.875,5.75 C7.875,6.785 7.035,7.625 6,7.625 Z" id="Shape"></path>
                </g>
            </g>
        </g>
    </g>
</svg>