<?xml version="1.0" encoding="UTF-8"?>
<svg width="17px" height="15px" viewBox="0 0 17 15" version="1.1" xmlns="http://www.w3.org/2000/svg" xmlns:xlink="http://www.w3.org/1999/xlink">
    <!-- Generator: Sketch 58 (84663) - https://sketch.com -->
    <title>archway-solid</title>
    <desc>Created with Sketch.</desc>
    <g id="Propuesta-3" stroke="none" stroke-width="1" fill="none" fill-rule="evenodd">
        <g id="archway-solid" fill="#657182" fill-rule="nonzero">
            <path d="M16.5277778,13.125 L16.0555556,13.125 L16.0555556,2.8125 L0.944444444,2.8125 L0.944444444,13.125 L0.4728125,13.125 C0.211909722,13.125 0.000590277778,13.3347656 0.000590277778,13.59375 L0.000590277778,14.53125 C0.000590277778,14.7902344 0.211909722,15 0.4728125,15 L5.19444444,15 C5.45534722,15 5.66666667,14.7902344 5.66666667,14.53125 L5.66666667,9.375 C5.66666667,7.82167969 6.93517361,6.5625 8.5,6.5625 C10.0648264,6.5625 11.3333333,7.82167969 11.3333333,9.375 L11.3339236,14.0625 L11.3339236,14.53125 C11.3339236,14.7902344 11.5452431,15 11.8061458,15 L16.5277778,15 C16.7886806,15 17,14.7902344 17,14.53125 L17,13.59375 C17,13.3347656 16.7886806,13.125 16.5277778,13.125 Z M16.5277778,0 L0.472222222,0 C0.211319444,0 0,0.209765625 0,0.46875 L0,1.40625 C0,1.66523438 0.211319444,1.875 0.472222222,1.875 L16.5277778,1.875 C16.7886806,1.875 17,1.66523438 17,1.40625 L17,0.46875 C17,0.209765625 16.7886806,0 16.5277778,0 Z" id="Shape"></path>
        </g>
    </g>
</svg>