<?xml version="1.0" encoding="UTF-8"?>
<svg width="14px" height="20px" viewBox="0 0 14 20" version="1.1" xmlns="http://www.w3.org/2000/svg" xmlns:xlink="http://www.w3.org/1999/xlink">
    <!-- Generator: Sketch 58 (84663) - https://sketch.com -->
    <title>cocktail (1)</title>
    <desc>Created with Sketch.</desc>
    <defs>
        <path d="M13.0696992,0.95531834 C11.8291076,-0.316129191 9.81064967,-0.316129191 8.57005806,0.955083964 C8.12196923,1.4141082 7.82451388,1.98633576 7.70185738,2.60883685 L3.21780555,2.60883685 L2.5144174,0.446215889 C2.4036149,0.104652793 2.04376405,-0.0804647171 1.70964134,0.0337542322 C1.37612848,0.147543493 1.19591718,0.516919138 1.30717707,0.858521296 L1.876474,2.60891497 L0.637864407,2.60891497 C0.229949592,2.60891497 -0.0724989284,2.99653284 0.0170349814,3.40438511 L0.306181103,4.72040303 C0.560565655,5.87700661 0.530301745,7.07708683 0.219162833,8.19099502 C-0.0739092113,9.24048904 -0.0731087804,10.3240456 0.221907167,11.4114303 C0.774166349,13.4479964 2.42968607,15.0556554 4.4398729,15.5074531 C4.65663721,15.556086 4.87389701,15.5915939 5.09092812,15.615383 L5.09092812,18.6957008 L3.18350137,18.6957008 C2.83195976,18.6957008 2.54715883,18.9876154 2.54715883,19.3478504 C2.54715883,19.7080854 2.83199787,20 3.18350137,20 L8.27439414,20 C8.62593575,20 8.91073668,19.7080854 8.91073668,19.3478504 C8.91073668,18.9876154 8.62589764,18.6957008 8.27439414,18.6957008 L6.36365132,18.6957008 L6.36365132,15.6093283 C7.43721969,15.4871015 8.4600941,15.0642101 9.31636455,14.3580761 C10.676106,13.2371757 11.4560306,11.5693603 11.4560306,9.78271655 C11.4560306,9.31884855 11.4013345,8.85521493 11.2936194,8.4047454 C11.1326946,7.73267391 11.0402639,7.10489938 11.0127825,6.51189053 C11.7800145,6.46364826 12.5148101,6.13528831 13.0696992,5.5667717 C14.3101003,4.29532417 14.3101003,2.22672681 13.0696992,0.95531834 Z M2.90800069,8.3122843 L1.38405655,8.83294927 C1.40410544,8.73865223 1.41649306,8.64341769 1.44264047,8.5499019 C1.81263011,7.22626678 1.84884008,5.80306117 1.54783995,4.43372285 L1.43349269,3.91317506 L2.30062613,3.91317506 L3.6729839,8.13263555 C3.41535951,8.16693248 3.15887859,8.22646384 2.90800069,8.3122843 Z M9.91150396,4.42419158 C9.6626843,5.5559123 9.70022832,6.85450832 9.90849281,7.99872906 L8.12444676,8.66263647 C7.41183459,8.92818381 6.61662559,8.87642591 5.9419386,8.52169873 C5.65603232,8.37119065 5.34981034,8.26513578 5.03451681,8.19458878 L3.64203391,3.91321412 L10.0239836,3.91321412 L9.91150396,4.42419158 Z" id="path-1"></path>
        <filter x="-14.3%" y="-10.0%" width="128.6%" height="120.0%" filterUnits="objectBoundingBox" id="filter-2">
            <feGaussianBlur stdDeviation="1.5" in="SourceAlpha" result="shadowBlurInner1"></feGaussianBlur>
            <feOffset dx="0" dy="1" in="shadowBlurInner1" result="shadowOffsetInner1"></feOffset>
            <feComposite in="shadowOffsetInner1" in2="SourceAlpha" operator="arithmetic" k2="-1" k3="1" result="shadowInnerInner1"></feComposite>
            <feColorMatrix values="0 0 0 0 0   0 0 0 0 0   0 0 0 0 0  0 0 0 0.5 0" type="matrix" in="shadowInnerInner1"></feColorMatrix>
        </filter>
    </defs>
    <g id="Page-1" stroke="none" stroke-width="1" fill="none" fill-rule="evenodd">
        <g id="Artboard" transform="translate(-264.000000, -201.000000)">
            <g id="cocktail-(1)" transform="translate(264.000000, 201.000000)">
                <g id="Shape" fill-rule="nonzero">
                    <use fill="#3D4355" xlink:href="#path-1"></use>
                    <use fill="black" fill-opacity="1" filter="url(#filter-2)" xlink:href="#path-1"></use>
                </g>
                <path d="M1.13561494,10.0438649 C1.53345959,13.0149084 3.05887054,14.5004301 5.71184779,14.5004301 C8.36482504,14.5004301 9.92716566,12.8828802 10.3988697,9.64778044 C9.69328284,9.72861721 8.99369665,9.90340349 8.30011108,10.1721393 C7.25973272,10.575243 6.55569724,9.85617667 5.94546232,9.64778044 C5.3352274,9.43938422 4.20036432,8.76050129 2.92928577,9.48077677 C2.08190007,9.96096042 1.48400979,10.1486565 1.13561494,10.0438649 Z" id="Path-2" fill="#FC9175"></path>
                <path d="M8.87750623,2.62434041 L10.3955854,2.62434041 C10.9478555,2.62436683 11.395559,3.07207025 11.395559,3.62434041 C11.395559,3.68745965 11.3895828,3.75043712 11.3777104,3.81242975 C11.3629617,3.88944136 11.342238,3.96658905 11.3155393,4.04387281 C11.1502725,4.52226427 11.067639,5.03861132 11.067639,5.59291396 C12.602013,4.93998345 13.3281574,4.0756788 13.2460721,3 C13.1229442,1.3864818 11.9468327,0.963039473 10.7998046,0.963039473 C10.0351193,0.963039473 9.39435313,1.51680645 8.87750623,2.62434041 Z" id="Path-3" fill="#D5F981"></path>
                <path d="M1.38405655,8.83037602 C2.80835807,8.3557541 3.56521813,8.11844314 3.65463674,8.11844314 C3.74405535,8.11844314 3.30553846,6.71937154 2.33908605,3.92122835 L1.42800518,3.92122835 C1.64403148,4.99935256 1.75204463,5.81620813 1.75204463,6.37179507 C1.75204463,6.92738202 1.62938194,7.746909 1.38405655,8.83037602 Z" id="Path-4" fill="#FFFFFF" fill-rule="nonzero"></path>
                <path d="M3.6729839,3.92122835 L10.0239836,3.92122835 C9.94698972,6.50898902 9.90849281,7.86815592 9.90849281,7.99872906 C9.90849281,8.19458878 9.16182294,8.16765347 8.12444676,8.66263647 C7.08707057,9.15761948 5.2168566,8.42223874 5.03451681,8.19458878 C4.91295694,8.04282214 4.45911264,6.61836866 3.6729839,3.92122835 Z" id="Path-5" fill="#FFFFFF"></path>
            </g>
        </g>
    </g>
</svg>