<?xml version="1.0" encoding="UTF-8"?>
<svg width="20px" height="21px" viewBox="0 0 20 21" version="1.1" xmlns="http://www.w3.org/2000/svg" xmlns:xlink="http://www.w3.org/1999/xlink">
    <!-- Generator: Sketch 58 (84663) - https://sketch.com -->
    <title>tea-cup (1)</title>
    <desc>Created with Sketch.</desc>
    <g id="Page-1" stroke="none" stroke-width="1" fill="none" fill-rule="evenodd">
        <g id="Artboard" transform="translate(-314.000000, -201.000000)">
            <g id="tea-cup-(1)" transform="translate(314.000000, 202.000000)">
                <path d="M18.328958,18.1809417 C17.1282936,18.1809417 11.6924571,18.1368658 0.904761905,18.0809164 C0.78983309,18.0803324 0.209472839,18.3233068 0.209472839,18.7507701 C0.209472839,19.2799564 0.815329798,19.5260501 1.38999731,19.5260501 L17.6871895,19.5238095 C18.3311948,19.5238095 18.9856168,19.4522573 18.9856168,18.8095238 C18.9856168,18.4467885 18.5871159,18.1809417 18.328958,18.1809417 Z" id="Path" fill="#3D4355" fill-rule="nonzero"></path>
                <g id="Group" transform="translate(0.904762, 7.619048)" fill="#FC9175" fill-rule="nonzero">
                    <path d="M8.28571429,0.523809524 L0.62856453,0.523809524 C0.438087294,0.523809524 0.285714286,0.652374074 0.285714286,0.845239418 C0.323818513,5.02382804 1.16189201,9.52380952 8.28571429,9.52380952 C15.4095366,9.52380952 16.247654,5.023791 16.2857143,0.845239418 C16.2857143,0.652374074 16.1333413,0.523809524 15.942864,0.523809524 L8.28571429,0.523809524 Z" id="Path"></path>
                </g>
                <polygon id="Path" fill="#D5F981" fill-rule="nonzero" points="12.7735078 14 9.79678956 14 9.79678956 11.2184684 11.2851487 10 12.7735078 11.2184684"></polygon>
                <path d="M9.52382782,5.71428571 C9.42860252,5.71428571 9.36509461,5.68253201 9.30158669,5.61906119 C8.82538707,5.11111167 8.57142857,4.60319874 8.57142857,4.09524922 C8.57142857,3.58729971 8.82538707,3.1111039 9.30158669,2.63490809 C9.65080706,2.31744421 9.84129423,1.96822663 9.84129423,1.61904564 C9.84129423,1.26986464 9.65080706,0.920610481 9.30158669,0.539675782 C9.17460744,0.412697549 9.17460744,0.222211908 9.30158669,0.0952336748 C9.42856594,-0.0317445583 9.61905311,-0.0317445583 9.74603236,0.0952336748 C10.222232,0.571429486 10.4761905,1.079379 10.4761905,1.61904564 C10.4761905,2.12699515 10.222232,2.63490809 9.74603236,3.07938677 C9.39681198,3.39685065 9.20632482,3.74606823 9.20632482,4.09524922 C9.20632482,4.44443022 9.39681198,4.79368438 9.74603236,5.17461908 C9.87301161,5.30159731 9.87301161,5.49208295 9.74603236,5.61906119 C9.68256102,5.68253201 9.58733573,5.71428571 9.52382782,5.71428571 Z" id="Path" stroke="#3D4355" stroke-width="0.3" fill="#3D4355" fill-rule="nonzero"></path>
                <path d="M13.3333516,5.71428571 C13.2381263,5.71428571 13.1746184,5.68253201 13.1111105,5.61906119 C12.6349109,5.11111167 12.3809524,4.60319874 12.3809524,4.09524922 C12.3809524,3.58729971 12.6349109,3.1111039 13.1111105,2.63490809 C13.4603309,2.31744421 13.650818,1.96822663 13.650818,1.61904564 C13.650818,1.26986464 13.4603309,0.920610481 13.1111105,0.539675782 C12.9841313,0.412697549 12.9841313,0.222211908 13.1111105,0.0952336748 C13.2380898,-0.0317445583 13.4285769,-0.0317445583 13.5555562,0.0952336748 C14.0317558,0.571429486 14.2857143,1.079379 14.2857143,1.61904564 C14.2857143,2.12699515 14.0317558,2.63490809 13.5555562,3.07938677 C13.2063358,3.39685065 13.0158486,3.74606823 13.0158486,4.09524922 C13.0158486,4.44443022 13.2063358,4.79368438 13.5555562,5.17461908 C13.6825354,5.30159731 13.6825354,5.49208295 13.5555562,5.61906119 C13.4920848,5.68253201 13.396823,5.71428571 13.3333516,5.71428571 Z" id="Path" stroke="#3D4355" stroke-width="0.3" fill="#3D4355" fill-rule="nonzero"></path>
                <path d="M5.71430401,5.71428571 C5.61907871,5.71428571 5.5555708,5.68253201 5.49206288,5.61906119 C5.01586326,5.11111167 4.76190476,4.60319874 4.76190476,4.09524922 C4.76190476,3.58729971 5.01586326,3.1111039 5.49206288,2.63490809 C5.84128326,2.31744421 6.03177042,1.96822663 6.03177042,1.61904564 C6.03177042,1.26986464 5.84128326,0.920610481 5.49206288,0.539675782 C5.36508363,0.412697549 5.36508363,0.222211908 5.49206288,0.0952336748 C5.61904213,-0.0317445583 5.8095293,-0.0317445583 5.93650855,0.0952336748 C6.41270817,0.571429486 6.66666667,1.079379 6.66666667,1.61904564 C6.66666667,2.12699515 6.41270817,2.63490809 5.93650855,3.07938677 C5.58728817,3.39685065 5.39680101,3.74606823 5.39680101,4.09524922 C5.39680101,4.44443022 5.58728817,4.79368438 5.93650855,5.17461908 C6.0634878,5.30159731 6.0634878,5.49208295 5.93650855,5.61906119 C5.87303721,5.68253201 5.77781192,5.71428571 5.71430401,5.71428571 Z" id="Path" stroke="#3D4355" stroke-width="0.3" fill="#3D4355" fill-rule="nonzero"></path>
                <path d="M9.04761905,17.1428571 C1.98855382,17.1428571 0.984769517,12.6349253 0.952380952,8.25397069 C0.952380952,8.09523992 1.01715808,7.93650916 1.14667503,7.80953186 C1.27619197,7.68255456 1.43809748,7.61904762 1.60000299,7.61904762 L3.54286908,7.61904762 C3.73716316,7.61904762 3.8666801,7.74602492 3.8666801,7.93650916 C3.8666801,8.12699339 3.73716316,8.25397069 3.54286908,8.25397069 L1.60000299,8.25397069 C1.63239155,12.5397014 2.57143603,16.5079341 9.04761905,16.5079341 C15.5238021,16.5079341 16.4628465,12.5396649 16.4952351,8.25397069 L3.23957155,8.25397069 L6.1333199,8.25397069 C5.93902583,8.25397069 2.91576053,8.3978147 2.91576053,7.93650916 C2.91576053,7.47520361 3.04527748,7.61904762 3.23957155,7.61904762 L9.04761905,7.61904762 L16.4952351,7.61904762 C16.6571406,7.61904762 16.8514347,7.68255456 16.9485631,7.80953186 C17.07808,7.93650916 17.1428571,8.09523992 17.1428571,8.25397069 C17.1104686,12.6349253 16.1066843,17.1428571 9.04761905,17.1428571 Z" id="Path" stroke="#3D4355" stroke-width="0.4" fill="#3D4355" fill-rule="nonzero"></path>
                <path d="M12.8223338,15.6587012 L14.5871035,14.2005319 C16.5358174,13.0123496 17.288742,10.9377473 17.3257876,9.26793704 L17.4331801,8.65888372 C18.6553853,8.65888372 19.7749059,9.33437961 19.7749059,10.5796602 C19.7749059,11.4808557 19.7592957,12.8741719 16.3996828,14.5201386 C15.9665778,14.7323286 14.7741281,15.1118495 12.8223338,15.6587012 Z M17.6928673,9.38761836 C17.3831967,10.8696203 17.0729947,11.1533868 16.2828082,12.6475366 C15.9516139,13.273786 15.6549851,13.9530057 15.2640846,14.492332 C17.4699819,13.8587708 19.2738548,12.2126111 19.2738548,10.7591952 C19.2738548,9.71572815 18.6084847,9.32273642 17.6928673,9.38761836 Z" id="Shape" stroke="#3D4355" stroke-width="0.4" fill="#3D4355" fill-rule="nonzero" transform="translate(16.298620, 12.158792) rotate(-10.000000) translate(-16.298620, -12.158792) "></path>
                <path d="M12.8095633,14.3809524 L9.76190915,14.3809524 C9.53332631,14.3809524 9.38095238,14.2449061 9.38095238,14.040817 L9.38095238,11.3197342 C9.38095238,11.2177093 9.41905684,11.1496665 9.49522185,11.0816238 L11.0190489,9.72108235 C11.1714229,9.58503604 11.4000057,9.58503604 11.5523796,9.72108235 L13.0762067,11.0816238 C13.1524156,11.1496665 13.1904762,11.2176701 13.1904762,11.3197342 L13.1904762,14.040817 C13.1905201,14.2449061 13.0381022,14.3809524 12.8095633,14.3809524 Z M10.1428659,13.7007209 L12.4286065,13.7007209 L12.4286065,11.4558197 L11.2857362,10.4354136 L10.1428659,11.4558197 L10.1428659,13.7007209 Z" id="Shape" fill="#3D4355" fill-rule="nonzero"></path>
                <path d="M11.2851487,10 L11.2857362,8" id="Path-8" stroke="#3D4355" stroke-width="0.65"></path>
            </g>
        </g>
    </g>
</svg>