<?xml version="1.0" encoding="UTF-8"?>
<svg width="20px" height="22px" viewBox="0 0 20 22" version="1.1" xmlns="http://www.w3.org/2000/svg" xmlns:xlink="http://www.w3.org/1999/xlink">
    <!-- Generator: Sketch 58 (84663) - https://sketch.com -->
    <title>dinner</title>
    <desc>Created with Sketch.</desc>
    <g id="Page-1" stroke="none" stroke-width="1" fill="none" fill-rule="evenodd">
        <g id="Artboard" transform="translate(-284.000000, -200.000000)">
            <g id="dinner" transform="translate(285.000000, 200.000000)">
                <path d="M3,8 L4.63057199,8 C5.04023711,9.79198892 5.10918867,11.2713167 4.83742667,12.4379834 C4.56566467,13.6046501 3.95318911,14.4586556 3,15 L3,8 Z" id="Rectangle" fill="#FFFFFF"></path>
                <path d="M14,7 L14.815286,7 C15.0201186,9.30398576 15.0545943,11.2059786 14.9187133,12.7059786 C14.7828323,14.2059786 14.4765946,15.3039858 14,16 L14,7 Z" id="Rectangle" fill="#FFFFFF" transform="translate(14.500000, 11.500000) scale(-1, 1) translate(-14.500000, -11.500000) "></path>
                <path d="M11,4.39259841 C11,5.24392132 11.4846299,7.66102648 12.3600005,7.92371339 C13.2353711,8.18640031 17.2929111,7.69782718 17.2929111,7.55472096 C17.2929111,7.41161474 18,5.85560156 18,4.79363844 C18,4.08566303 17.9551069,3.10691039 17.8653207,1.85738052 C17.7043165,1.45747956 17.5135133,1.25752908 17.2929111,1.25752908 C16.9620079,1.25752908 16.7128647,1.19339071 16.7128647,1.52538562 C16.7128647,1.85738052 16.4961559,1.93772872 16.4961559,2.40246901 C16.4961559,2.86720931 16.2794471,4.00618608 16.4961559,4.00618608 C16.7128647,4.00618608 16.6223896,5.16260929 16.4961559,5.16260929 C16.3699221,5.16260929 16.5116465,5.45228339 16.0079507,5.45228339 C15.5042549,5.45228339 15.1233065,5.29202509 15.1233065,5.04283177 C15.1233065,4.79363844 14.9694573,4.0238028 14.9694573,3.8453194 C14.9694573,3.66683599 14.9694573,2.81323495 14.9694573,2.60785198 C14.9694573,2.40246901 14.8244792,1.52538562 14.8244792,1.52538562 C14.8244792,1.52538562 14.652592,1.10647096 14.3853048,1.25752908 C14.1180176,1.4085872 13.8718409,1.19339071 13.8718409,1.52538562 C13.8718409,1.85738052 13.8718409,3.08696207 13.8718409,3.24029833 C13.8718409,3.39363459 13.7030201,4.79363844 13.7030201,4.79363844 C13.7030201,4.79363844 12.8342083,5.46356198 12.5971044,5.04283177 C12.4390351,4.76234496 12.3600005,4.26112524 12.3600005,3.5391726 L12.5971044,1.85738052 C12.2845597,1.21161582 12.0381718,0.929360276 11.8579405,1.01061389 C11.5875935,1.13249431 11,1.54834224 11,1.85738052 C11,2.1664188 11,3.5412755 11,4.39259841 Z" id="Path-6" stroke="#FFFFFF" stroke-width="0.5" fill="#FFFFFF"></path>
                <path d="M15.7727273,15.6718321 C15.6970899,15.8906107 15.5910293,16 15.4545455,16 C15.3180616,16 15.212001,15.8906107 15.1363636,15.6718321 L15.1363636,8.00246533 L15.4545455,8.00246533 C16.5074091,8.00246533 17.3636364,7.10514942 17.3636364,6.00176095 L17.3636364,2.00035219 C17.3636364,1.81662084 17.2210909,1.66690146 17.0454545,1.66690146 C16.8698182,1.66690146 16.7272727,1.81662084 16.7272727,2.00035219 L16.7272727,4.3345073 C16.7272727,4.88603481 16.299,5.33485949 15.7727273,5.33485949 C15.2464545,5.33485949 14.8181818,4.88603481 14.8181818,4.3345073 L14.8181818,2.00035219 C14.8181818,1.81662084 14.6756364,1.66690146 14.5,1.66690146 C14.3243636,1.66690146 14.1818182,1.81662084 14.1818182,2.00035219 L14.1818182,4.3345073 C14.1818182,4.88603481 13.7535455,5.33485949 13.2272727,5.33485949 C12.701,5.33485949 12.2727273,4.88603481 12.2727273,4.3345073 L12.2727273,2.00035219 C12.2727273,1.81662084 12.1301818,1.66690146 11.9545455,1.66690146 C11.7789091,1.66690146 11.6363636,1.81662084 11.6363636,2.00035219 L11.6363636,6.00176095 C11.6363636,7.10514942 12.4925909,8.00246533 13.5454545,8.00246533 L13.8636364,8.00246533 L13.8636364,12.6707756 C13.8636364,12.8939577 13.7575758,13.0055488 13.5454545,13.0055488 C13.3333333,13.0055488 13.2272727,12.8939577 13.2272727,12.6707756 L13.2272727,8.64869285 C11.9736364,8.48396819 11,7.35957232 11,6.00176095 L11,2.00035219 C11,1.44882468 11.4282727,1 11.9545455,1 C12.4808182,1 12.9090909,1.44882468 12.9090909,2.00035219 L12.9090909,4.3345073 C12.9090909,4.51823865 13.0516364,4.66795803 13.2272727,4.66795803 C13.4029091,4.66795803 13.5454545,4.51823865 13.5454545,4.3345073 L13.5454545,2.00035219 C13.5454545,1.44882468 13.9737273,1 14.5,1 C15.0262727,1 15.4545455,1.44882468 15.4545455,2.00035219 L15.4545455,4.3345073 C15.4545455,4.51823865 15.5970909,4.66795803 15.7727273,4.66795803 C15.9483636,4.66795803 16.0909091,4.51823865 16.0909091,4.3345073 L16.0909091,2.00035219 C16.0909091,1.44882468 16.5191818,1 17.0454545,1 C17.5717273,1 18,1.44882468 18,2.00035219 L18,6.00176095 C18,7.35957232 17.0263636,8.48396819 15.7727273,8.64869285 L15.7727273,15.6718321 Z" id="Path" stroke="#3D4355" stroke-width="0.3" fill="#3D4355" fill-rule="nonzero"></path>
                <g id="Group" transform="translate(1.000000, 12.000000)" fill="#FC9175" fill-rule="nonzero">
                    <path d="M15.36,7 L0.64,7 C0.2864,7 0,7.29833333 0,7.66666667 L0,8.33333333 C0,8.70166667 0.2864,9 0.64,9 L15.36,9 C15.7136,9 16,8.70166667 16,8.33333333 L16,7.66666667 C16,7.29833333 15.7136,7 15.36,7 Z" id="Path"></path>
                    <path d="M8.95454545,0 L7.04545455,0 C3.70677273,0 1,3.13415789 1,7 L15,7 C15,3.13415789 12.2932273,0 8.95454545,0 Z" id="Path"></path>
                </g>
                <g id="Group" transform="translate(2.000000, 9.000000)" fill="#3D4355" fill-rule="nonzero" stroke="#3D4355" stroke-width="0.35">
                    <path d="M5.89797657,3.16758606 L7.88353178,3.16758606 C10.8450059,3.16758606 13.4032294,6.35269732 13.4032294,9.49652648 C13.471735,9.6748631 13.5783612,9.7640314 13.7231081,9.7640314 C13.8678549,9.7640314 13.9601523,9.6748631 14,9.49652648 C14,6.78412254 12.2342879,3.84386568 9.9722289,2.94237069 L9.9722289,0.950275818 C9.9722289,0.426357084 9.57060228,0 9.07707299,0 L4.89967876,0 C4.40614947,0 4.00452286,0.426357084 4.00452286,0.950275818 L4.00452286,2.94237069 C1.74246388,3.84386568 0,6.8988546 0,9.61125854 C0.0576121336,9.87041951 0.164364521,10 0.320257163,10 C0.476149805,10 0.597075668,9.79090483 0.683034752,9.37271449 C0.941302165,6.00066487 2.93650244,3.16758606 5.89797657,3.16758606 Z" id="Shape"></path>
                </g>
                <path d="M7.5,10 L10.5,10 C10.7761424,10 11,10.2238576 11,10.5 C11,10.7761424 10.7761424,11 10.5,11 L7.5,11 C7.22385763,11 7,10.7761424 7,10.5 C7,10.2238576 7.22385763,10 7.5,10 Z" id="Rectangle" fill="#FC9175"></path>
                <path d="M3.50475262,9 C5.26254492,9 7,8.04623575 7,5.77386453 C7,3.50149332 5.26254492,1 3.50475262,1 C1.74696031,1 0,3.34318567 0,5.61555688 C0,7.8879281 1.74696031,9 3.50475262,9 Z" id="Oval" fill="#FFFFFF"></path>
                <path d="M2.86363636,15.5258681 C2.86068197,15.841956 2.76063776,16 2.56350371,16 C2.36636967,16 2.25429267,15.841956 2.22727273,15.5258681 L2.22727273,9.10312346 C0.768727273,8.72743169 0,7.64360385 0,5.95200048 C0,3.89559975 1.08595455,1 3.5,1 C5.91404545,1 7,3.89559975 7,5.95200048 C7,7.64360385 6.23127273,8.72743169 4.77272727,9.10312346 L4.77272727,12.5546678 C4.72700969,12.8449853 4.61926293,12.9901441 4.44948699,12.9901441 C4.27971105,12.9901441 4.1753366,12.8449853 4.13636364,12.5546678 L4.13636364,8.56170474 L4.39695455,8.51218473 C5.72059091,8.25996284 6.36363636,7.42241449 6.36363636,5.95200048 C6.36363636,4.22111125 5.45363636,1.66026673 3.5,1.66026673 C1.54636364,1.66026673 0.636363636,4.22111125 0.636363636,5.95200048 C0.636363636,7.42241449 1.27940909,8.25996284 2.60304545,8.5118546 L2.86363636,8.56170474 L2.86363636,15.5258681 Z" id="Path" stroke="#3D4355" stroke-width="0.35" fill="#3D4355" fill-rule="nonzero" stroke-linejoin="round"></path>
                <rect id="Rectangle" stroke="#3D4355" x="1" y="19" width="16" height="2" rx="1"></rect>
            </g>
        </g>
    </g>
</svg>